%TF.GenerationSoftware,KiCad,Pcbnew,(5.1.10)-1*%
%TF.CreationDate,2021-08-21T19:47:19+01:00*%
%TF.ProjectId,SLT_interconnect,534c545f-696e-4746-9572-636f6e6e6563,00*%
%TF.SameCoordinates,Original*%
%TF.FileFunction,Soldermask,Bot*%
%TF.FilePolarity,Negative*%
%FSLAX46Y46*%
G04 Gerber Fmt 4.6, Leading zero omitted, Abs format (unit mm)*
G04 Created by KiCad (PCBNEW (5.1.10)-1) date 2021-08-21 19:47:19*
%MOMM*%
%LPD*%
G01*
G04 APERTURE LIST*
%ADD10C,0.100000*%
%ADD11C,0.500000*%
%ADD12C,2.500000*%
%ADD13R,1.700000X1.700000*%
G04 APERTURE END LIST*
D10*
G36*
X127100000Y-46100000D02*
G01*
X85100000Y-46100000D01*
X85100000Y-43000000D01*
X127100000Y-43000000D01*
X127100000Y-46100000D01*
G37*
X127100000Y-46100000D02*
X85100000Y-46100000D01*
X85100000Y-43000000D01*
X127100000Y-43000000D01*
X127100000Y-46100000D01*
G36*
X124150000Y-84650000D02*
G01*
X88150000Y-84650000D01*
X88150000Y-81050000D01*
X124150000Y-81050000D01*
X124150000Y-84650000D01*
G37*
X124150000Y-84650000D02*
X88150000Y-84650000D01*
X88150000Y-81050000D01*
X124150000Y-81050000D01*
X124150000Y-84650000D01*
D11*
%TO.C,REF\u002A\u002A*%
X117950000Y-77600000D03*
X117150000Y-77600000D03*
X116350000Y-77600000D03*
X115550000Y-77600000D03*
X117950000Y-75200000D03*
X117150000Y-75200000D03*
X116350000Y-75200000D03*
X115550000Y-75200000D03*
%TD*%
%TO.C,REF\u002A\u002A*%
X96750000Y-77600000D03*
X95950000Y-77600000D03*
X95150000Y-77600000D03*
X94350000Y-77600000D03*
X96750000Y-75200000D03*
X95950000Y-75200000D03*
X95150000Y-75200000D03*
X94350000Y-75200000D03*
%TD*%
D12*
%TO.C,REF\u002A\u002A*%
X125200000Y-82850000D03*
%TD*%
%TO.C,REF\u002A\u002A*%
X118850000Y-82850000D03*
%TD*%
%TO.C,REF\u002A\u002A*%
X112500000Y-82850000D03*
%TD*%
%TO.C,REF\u002A\u002A*%
X87100000Y-82850000D03*
%TD*%
%TO.C,REF\u002A\u002A*%
X93450000Y-82850000D03*
%TD*%
%TO.C,REF\u002A\u002A*%
X99800000Y-82850000D03*
%TD*%
%TO.C,REF\u002A\u002A*%
X106150000Y-82850000D03*
%TD*%
%TO.C,J124*%
G36*
G01*
X88125000Y-55025001D02*
X88125000Y-53674999D01*
G75*
G02*
X88374999Y-53425000I249999J0D01*
G01*
X89725001Y-53425000D01*
G75*
G02*
X89975000Y-53674999I0J-249999D01*
G01*
X89975000Y-55025001D01*
G75*
G02*
X89725001Y-55275000I-249999J0D01*
G01*
X88374999Y-55275000D01*
G75*
G02*
X88125000Y-55025001I0J249999D01*
G01*
G37*
%TD*%
%TO.C,J123*%
G36*
G01*
X91375000Y-55025001D02*
X91375000Y-53674999D01*
G75*
G02*
X91624999Y-53425000I249999J0D01*
G01*
X92975001Y-53425000D01*
G75*
G02*
X93225000Y-53674999I0J-249999D01*
G01*
X93225000Y-55025001D01*
G75*
G02*
X92975001Y-55275000I-249999J0D01*
G01*
X91624999Y-55275000D01*
G75*
G02*
X91375000Y-55025001I0J249999D01*
G01*
G37*
%TD*%
%TO.C,J122*%
G36*
G01*
X94625000Y-55025001D02*
X94625000Y-53674999D01*
G75*
G02*
X94874999Y-53425000I249999J0D01*
G01*
X96225001Y-53425000D01*
G75*
G02*
X96475000Y-53674999I0J-249999D01*
G01*
X96475000Y-55025001D01*
G75*
G02*
X96225001Y-55275000I-249999J0D01*
G01*
X94874999Y-55275000D01*
G75*
G02*
X94625000Y-55025001I0J249999D01*
G01*
G37*
%TD*%
%TO.C,J121*%
G36*
G01*
X97875000Y-55025001D02*
X97875000Y-53674999D01*
G75*
G02*
X98124999Y-53425000I249999J0D01*
G01*
X99475001Y-53425000D01*
G75*
G02*
X99725000Y-53674999I0J-249999D01*
G01*
X99725000Y-55025001D01*
G75*
G02*
X99475001Y-55275000I-249999J0D01*
G01*
X98124999Y-55275000D01*
G75*
G02*
X97875000Y-55025001I0J249999D01*
G01*
G37*
%TD*%
%TO.C,J120*%
G36*
G01*
X101125000Y-55025001D02*
X101125000Y-53674999D01*
G75*
G02*
X101374999Y-53425000I249999J0D01*
G01*
X102725001Y-53425000D01*
G75*
G02*
X102975000Y-53674999I0J-249999D01*
G01*
X102975000Y-55025001D01*
G75*
G02*
X102725001Y-55275000I-249999J0D01*
G01*
X101374999Y-55275000D01*
G75*
G02*
X101125000Y-55025001I0J249999D01*
G01*
G37*
%TD*%
%TO.C,J119*%
G36*
G01*
X104375000Y-55025001D02*
X104375000Y-53674999D01*
G75*
G02*
X104624999Y-53425000I249999J0D01*
G01*
X105975001Y-53425000D01*
G75*
G02*
X106225000Y-53674999I0J-249999D01*
G01*
X106225000Y-55025001D01*
G75*
G02*
X105975001Y-55275000I-249999J0D01*
G01*
X104624999Y-55275000D01*
G75*
G02*
X104375000Y-55025001I0J249999D01*
G01*
G37*
%TD*%
%TO.C,J118*%
G36*
G01*
X107625000Y-55025001D02*
X107625000Y-53674999D01*
G75*
G02*
X107874999Y-53425000I249999J0D01*
G01*
X109225001Y-53425000D01*
G75*
G02*
X109475000Y-53674999I0J-249999D01*
G01*
X109475000Y-55025001D01*
G75*
G02*
X109225001Y-55275000I-249999J0D01*
G01*
X107874999Y-55275000D01*
G75*
G02*
X107625000Y-55025001I0J249999D01*
G01*
G37*
%TD*%
%TO.C,J117*%
G36*
G01*
X110875000Y-55025001D02*
X110875000Y-53674999D01*
G75*
G02*
X111124999Y-53425000I249999J0D01*
G01*
X112475001Y-53425000D01*
G75*
G02*
X112725000Y-53674999I0J-249999D01*
G01*
X112725000Y-55025001D01*
G75*
G02*
X112475001Y-55275000I-249999J0D01*
G01*
X111124999Y-55275000D01*
G75*
G02*
X110875000Y-55025001I0J249999D01*
G01*
G37*
%TD*%
%TO.C,J116*%
G36*
G01*
X114125000Y-55025001D02*
X114125000Y-53674999D01*
G75*
G02*
X114374999Y-53425000I249999J0D01*
G01*
X115725001Y-53425000D01*
G75*
G02*
X115975000Y-53674999I0J-249999D01*
G01*
X115975000Y-55025001D01*
G75*
G02*
X115725001Y-55275000I-249999J0D01*
G01*
X114374999Y-55275000D01*
G75*
G02*
X114125000Y-55025001I0J249999D01*
G01*
G37*
%TD*%
%TO.C,J115*%
G36*
G01*
X117375000Y-55025001D02*
X117375000Y-53674999D01*
G75*
G02*
X117624999Y-53425000I249999J0D01*
G01*
X118975001Y-53425000D01*
G75*
G02*
X119225000Y-53674999I0J-249999D01*
G01*
X119225000Y-55025001D01*
G75*
G02*
X118975001Y-55275000I-249999J0D01*
G01*
X117624999Y-55275000D01*
G75*
G02*
X117375000Y-55025001I0J249999D01*
G01*
G37*
%TD*%
%TO.C,J114*%
G36*
G01*
X120625000Y-55025001D02*
X120625000Y-53674999D01*
G75*
G02*
X120874999Y-53425000I249999J0D01*
G01*
X122225001Y-53425000D01*
G75*
G02*
X122475000Y-53674999I0J-249999D01*
G01*
X122475000Y-55025001D01*
G75*
G02*
X122225001Y-55275000I-249999J0D01*
G01*
X120874999Y-55275000D01*
G75*
G02*
X120625000Y-55025001I0J249999D01*
G01*
G37*
%TD*%
%TO.C,J113*%
G36*
G01*
X123875000Y-55025001D02*
X123875000Y-53674999D01*
G75*
G02*
X124124999Y-53425000I249999J0D01*
G01*
X125475001Y-53425000D01*
G75*
G02*
X125725000Y-53674999I0J-249999D01*
G01*
X125725000Y-55025001D01*
G75*
G02*
X125475001Y-55275000I-249999J0D01*
G01*
X124124999Y-55275000D01*
G75*
G02*
X123875000Y-55025001I0J249999D01*
G01*
G37*
%TD*%
%TO.C,J112*%
G36*
G01*
X122375000Y-50275001D02*
X122375000Y-48924999D01*
G75*
G02*
X122624999Y-48675000I249999J0D01*
G01*
X123975001Y-48675000D01*
G75*
G02*
X124225000Y-48924999I0J-249999D01*
G01*
X124225000Y-50275001D01*
G75*
G02*
X123975001Y-50525000I-249999J0D01*
G01*
X122624999Y-50525000D01*
G75*
G02*
X122375000Y-50275001I0J249999D01*
G01*
G37*
%TD*%
%TO.C,J111*%
G36*
G01*
X119125000Y-50275001D02*
X119125000Y-48924999D01*
G75*
G02*
X119374999Y-48675000I249999J0D01*
G01*
X120725001Y-48675000D01*
G75*
G02*
X120975000Y-48924999I0J-249999D01*
G01*
X120975000Y-50275001D01*
G75*
G02*
X120725001Y-50525000I-249999J0D01*
G01*
X119374999Y-50525000D01*
G75*
G02*
X119125000Y-50275001I0J249999D01*
G01*
G37*
%TD*%
%TO.C,J110*%
G36*
G01*
X115875000Y-50275001D02*
X115875000Y-48924999D01*
G75*
G02*
X116124999Y-48675000I249999J0D01*
G01*
X117475001Y-48675000D01*
G75*
G02*
X117725000Y-48924999I0J-249999D01*
G01*
X117725000Y-50275001D01*
G75*
G02*
X117475001Y-50525000I-249999J0D01*
G01*
X116124999Y-50525000D01*
G75*
G02*
X115875000Y-50275001I0J249999D01*
G01*
G37*
%TD*%
%TO.C,J109*%
G36*
G01*
X112625000Y-50275001D02*
X112625000Y-48924999D01*
G75*
G02*
X112874999Y-48675000I249999J0D01*
G01*
X114225001Y-48675000D01*
G75*
G02*
X114475000Y-48924999I0J-249999D01*
G01*
X114475000Y-50275001D01*
G75*
G02*
X114225001Y-50525000I-249999J0D01*
G01*
X112874999Y-50525000D01*
G75*
G02*
X112625000Y-50275001I0J249999D01*
G01*
G37*
%TD*%
%TO.C,J108*%
G36*
G01*
X109375000Y-50275001D02*
X109375000Y-48924999D01*
G75*
G02*
X109624999Y-48675000I249999J0D01*
G01*
X110975001Y-48675000D01*
G75*
G02*
X111225000Y-48924999I0J-249999D01*
G01*
X111225000Y-50275001D01*
G75*
G02*
X110975001Y-50525000I-249999J0D01*
G01*
X109624999Y-50525000D01*
G75*
G02*
X109375000Y-50275001I0J249999D01*
G01*
G37*
%TD*%
%TO.C,J107*%
G36*
G01*
X106125000Y-50275001D02*
X106125000Y-48924999D01*
G75*
G02*
X106374999Y-48675000I249999J0D01*
G01*
X107725001Y-48675000D01*
G75*
G02*
X107975000Y-48924999I0J-249999D01*
G01*
X107975000Y-50275001D01*
G75*
G02*
X107725001Y-50525000I-249999J0D01*
G01*
X106374999Y-50525000D01*
G75*
G02*
X106125000Y-50275001I0J249999D01*
G01*
G37*
%TD*%
%TO.C,J106*%
G36*
G01*
X102875000Y-50275001D02*
X102875000Y-48924999D01*
G75*
G02*
X103124999Y-48675000I249999J0D01*
G01*
X104475001Y-48675000D01*
G75*
G02*
X104725000Y-48924999I0J-249999D01*
G01*
X104725000Y-50275001D01*
G75*
G02*
X104475001Y-50525000I-249999J0D01*
G01*
X103124999Y-50525000D01*
G75*
G02*
X102875000Y-50275001I0J249999D01*
G01*
G37*
%TD*%
%TO.C,J105*%
G36*
G01*
X99625000Y-50275001D02*
X99625000Y-48924999D01*
G75*
G02*
X99874999Y-48675000I249999J0D01*
G01*
X101225001Y-48675000D01*
G75*
G02*
X101475000Y-48924999I0J-249999D01*
G01*
X101475000Y-50275001D01*
G75*
G02*
X101225001Y-50525000I-249999J0D01*
G01*
X99874999Y-50525000D01*
G75*
G02*
X99625000Y-50275001I0J249999D01*
G01*
G37*
%TD*%
%TO.C,J104*%
G36*
G01*
X96375000Y-50275001D02*
X96375000Y-48924999D01*
G75*
G02*
X96624999Y-48675000I249999J0D01*
G01*
X97975001Y-48675000D01*
G75*
G02*
X98225000Y-48924999I0J-249999D01*
G01*
X98225000Y-50275001D01*
G75*
G02*
X97975001Y-50525000I-249999J0D01*
G01*
X96624999Y-50525000D01*
G75*
G02*
X96375000Y-50275001I0J249999D01*
G01*
G37*
%TD*%
%TO.C,J103*%
G36*
G01*
X93125000Y-50275001D02*
X93125000Y-48924999D01*
G75*
G02*
X93374999Y-48675000I249999J0D01*
G01*
X94725001Y-48675000D01*
G75*
G02*
X94975000Y-48924999I0J-249999D01*
G01*
X94975000Y-50275001D01*
G75*
G02*
X94725001Y-50525000I-249999J0D01*
G01*
X93374999Y-50525000D01*
G75*
G02*
X93125000Y-50275001I0J249999D01*
G01*
G37*
%TD*%
%TO.C,J102*%
G36*
G01*
X89875000Y-50275001D02*
X89875000Y-48924999D01*
G75*
G02*
X90124999Y-48675000I249999J0D01*
G01*
X91475001Y-48675000D01*
G75*
G02*
X91725000Y-48924999I0J-249999D01*
G01*
X91725000Y-50275001D01*
G75*
G02*
X91475001Y-50525000I-249999J0D01*
G01*
X90124999Y-50525000D01*
G75*
G02*
X89875000Y-50275001I0J249999D01*
G01*
G37*
%TD*%
%TO.C,J101*%
G36*
G01*
X86625000Y-50275001D02*
X86625000Y-48924999D01*
G75*
G02*
X86874999Y-48675000I249999J0D01*
G01*
X88225001Y-48675000D01*
G75*
G02*
X88475000Y-48924999I0J-249999D01*
G01*
X88475000Y-50275001D01*
G75*
G02*
X88225001Y-50525000I-249999J0D01*
G01*
X86874999Y-50525000D01*
G75*
G02*
X86625000Y-50275001I0J249999D01*
G01*
G37*
%TD*%
D13*
%TO.C,J24*%
X88687500Y-86025000D03*
%TD*%
%TO.C,J23*%
X91862500Y-86025000D03*
%TD*%
%TO.C,J22*%
X95037500Y-86025000D03*
%TD*%
%TO.C,J21*%
X98212500Y-86025000D03*
%TD*%
%TO.C,J20*%
X101387500Y-86025000D03*
%TD*%
%TO.C,J19*%
X104562500Y-86025000D03*
%TD*%
%TO.C,J18*%
X107737500Y-86025000D03*
%TD*%
%TO.C,J17*%
X110912500Y-86025000D03*
%TD*%
%TO.C,J16*%
X114087500Y-86025000D03*
%TD*%
%TO.C,J15*%
X117262500Y-86025000D03*
%TD*%
%TO.C,J14*%
X120437500Y-86025000D03*
%TD*%
%TO.C,J13*%
X123612500Y-86025000D03*
%TD*%
%TO.C,J12*%
X123612500Y-79675000D03*
%TD*%
%TO.C,J11*%
X120437500Y-79675000D03*
%TD*%
%TO.C,J10*%
X117262500Y-79675000D03*
%TD*%
%TO.C,J9*%
X114087500Y-79675000D03*
%TD*%
%TO.C,J8*%
X110912500Y-79675000D03*
%TD*%
%TO.C,J7*%
X107737500Y-79675000D03*
%TD*%
%TO.C,J6*%
X104562500Y-79675000D03*
%TD*%
%TO.C,J5*%
X101387500Y-79675000D03*
%TD*%
%TO.C,J4*%
X98212500Y-79675000D03*
%TD*%
%TO.C,J3*%
X95037500Y-79675000D03*
%TD*%
%TO.C,J2*%
X91862500Y-79675000D03*
%TD*%
%TO.C,J1*%
X88687500Y-79675000D03*
%TD*%
M02*
