M48
; DRILL file {KiCad (5.1.10)-1} date 08/21/21 19:47:25
; FORMAT={-:-/ absolute / inch / decimal}
; #@! TF.CreationDate,2021-08-21T19:47:25+01:00
; #@! TF.GenerationSoftware,Kicad,Pcbnew,(5.1.10)-1
; #@! TF.FileFunction,NonPlated,1,2,NPTH
FMAT,2
INCH
T1C0.0197
T2C0.0984
%
G90
G05
T1
X3.7146Y-2.9606
X3.7146Y-3.0551
X3.7461Y-2.9606
X3.7461Y-3.0551
X3.7776Y-2.9606
X3.7776Y-3.0551
X3.8091Y-2.9606
X3.8091Y-3.0551
X4.5492Y-2.9606
X4.5492Y-3.0551
X4.5807Y-2.9606
X4.5807Y-3.0551
X4.6122Y-2.9606
X4.6122Y-3.0551
X4.6437Y-2.9606
X4.6437Y-3.0551
T2
X3.4291Y-3.2618
X3.6791Y-3.2618
X3.9291Y-3.2618
X4.1791Y-3.2618
X4.4291Y-3.2618
X4.6791Y-3.2618
X4.9291Y-3.2618
T0
M30
