%TF.GenerationSoftware,KiCad,Pcbnew,(5.1.10)-1*%
%TF.CreationDate,2021-08-21T19:47:19+01:00*%
%TF.ProjectId,SLT_interconnect,534c545f-696e-4746-9572-636f6e6e6563,00*%
%TF.SameCoordinates,Original*%
%TF.FileFunction,Copper,L2,Bot*%
%TF.FilePolarity,Positive*%
%FSLAX46Y46*%
G04 Gerber Fmt 4.6, Leading zero omitted, Abs format (unit mm)*
G04 Created by KiCad (PCBNEW (5.1.10)-1) date 2021-08-21 19:47:19*
%MOMM*%
%LPD*%
G01*
G04 APERTURE LIST*
%TA.AperFunction,ComponentPad*%
%ADD10R,1.700000X1.700000*%
%TD*%
%TA.AperFunction,Conductor*%
%ADD11C,1.000000*%
%TD*%
%TA.AperFunction,Conductor*%
%ADD12C,0.030000*%
%TD*%
%TA.AperFunction,Conductor*%
%ADD13C,0.100000*%
%TD*%
G04 APERTURE END LIST*
%TO.P,J124,1*%
%TO.N,Net-(J124-Pad1)*%
%TA.AperFunction,ComponentPad*%
G36*
G01*
X88125000Y-55025001D02*
X88125000Y-53674999D01*
G75*
G02*
X88374999Y-53425000I249999J0D01*
G01*
X89725001Y-53425000D01*
G75*
G02*
X89975000Y-53674999I0J-249999D01*
G01*
X89975000Y-55025001D01*
G75*
G02*
X89725001Y-55275000I-249999J0D01*
G01*
X88374999Y-55275000D01*
G75*
G02*
X88125000Y-55025001I0J249999D01*
G01*
G37*
%TD.AperFunction*%
%TD*%
%TO.P,J123,1*%
%TO.N,Net-(J123-Pad1)*%
%TA.AperFunction,ComponentPad*%
G36*
G01*
X91375000Y-55025001D02*
X91375000Y-53674999D01*
G75*
G02*
X91624999Y-53425000I249999J0D01*
G01*
X92975001Y-53425000D01*
G75*
G02*
X93225000Y-53674999I0J-249999D01*
G01*
X93225000Y-55025001D01*
G75*
G02*
X92975001Y-55275000I-249999J0D01*
G01*
X91624999Y-55275000D01*
G75*
G02*
X91375000Y-55025001I0J249999D01*
G01*
G37*
%TD.AperFunction*%
%TD*%
%TO.P,J122,1*%
%TO.N,Net-(J122-Pad1)*%
%TA.AperFunction,ComponentPad*%
G36*
G01*
X94625000Y-55025001D02*
X94625000Y-53674999D01*
G75*
G02*
X94874999Y-53425000I249999J0D01*
G01*
X96225001Y-53425000D01*
G75*
G02*
X96475000Y-53674999I0J-249999D01*
G01*
X96475000Y-55025001D01*
G75*
G02*
X96225001Y-55275000I-249999J0D01*
G01*
X94874999Y-55275000D01*
G75*
G02*
X94625000Y-55025001I0J249999D01*
G01*
G37*
%TD.AperFunction*%
%TD*%
%TO.P,J121,1*%
%TO.N,Net-(J121-Pad1)*%
%TA.AperFunction,ComponentPad*%
G36*
G01*
X97875000Y-55025001D02*
X97875000Y-53674999D01*
G75*
G02*
X98124999Y-53425000I249999J0D01*
G01*
X99475001Y-53425000D01*
G75*
G02*
X99725000Y-53674999I0J-249999D01*
G01*
X99725000Y-55025001D01*
G75*
G02*
X99475001Y-55275000I-249999J0D01*
G01*
X98124999Y-55275000D01*
G75*
G02*
X97875000Y-55025001I0J249999D01*
G01*
G37*
%TD.AperFunction*%
%TD*%
%TO.P,J120,1*%
%TO.N,Net-(J120-Pad1)*%
%TA.AperFunction,ComponentPad*%
G36*
G01*
X101125000Y-55025001D02*
X101125000Y-53674999D01*
G75*
G02*
X101374999Y-53425000I249999J0D01*
G01*
X102725001Y-53425000D01*
G75*
G02*
X102975000Y-53674999I0J-249999D01*
G01*
X102975000Y-55025001D01*
G75*
G02*
X102725001Y-55275000I-249999J0D01*
G01*
X101374999Y-55275000D01*
G75*
G02*
X101125000Y-55025001I0J249999D01*
G01*
G37*
%TD.AperFunction*%
%TD*%
%TO.P,J119,1*%
%TO.N,Net-(J119-Pad1)*%
%TA.AperFunction,ComponentPad*%
G36*
G01*
X104375000Y-55025001D02*
X104375000Y-53674999D01*
G75*
G02*
X104624999Y-53425000I249999J0D01*
G01*
X105975001Y-53425000D01*
G75*
G02*
X106225000Y-53674999I0J-249999D01*
G01*
X106225000Y-55025001D01*
G75*
G02*
X105975001Y-55275000I-249999J0D01*
G01*
X104624999Y-55275000D01*
G75*
G02*
X104375000Y-55025001I0J249999D01*
G01*
G37*
%TD.AperFunction*%
%TD*%
%TO.P,J118,1*%
%TO.N,Net-(J118-Pad1)*%
%TA.AperFunction,ComponentPad*%
G36*
G01*
X107625000Y-55025001D02*
X107625000Y-53674999D01*
G75*
G02*
X107874999Y-53425000I249999J0D01*
G01*
X109225001Y-53425000D01*
G75*
G02*
X109475000Y-53674999I0J-249999D01*
G01*
X109475000Y-55025001D01*
G75*
G02*
X109225001Y-55275000I-249999J0D01*
G01*
X107874999Y-55275000D01*
G75*
G02*
X107625000Y-55025001I0J249999D01*
G01*
G37*
%TD.AperFunction*%
%TD*%
%TO.P,J117,1*%
%TO.N,Net-(J117-Pad1)*%
%TA.AperFunction,ComponentPad*%
G36*
G01*
X110875000Y-55025001D02*
X110875000Y-53674999D01*
G75*
G02*
X111124999Y-53425000I249999J0D01*
G01*
X112475001Y-53425000D01*
G75*
G02*
X112725000Y-53674999I0J-249999D01*
G01*
X112725000Y-55025001D01*
G75*
G02*
X112475001Y-55275000I-249999J0D01*
G01*
X111124999Y-55275000D01*
G75*
G02*
X110875000Y-55025001I0J249999D01*
G01*
G37*
%TD.AperFunction*%
%TD*%
%TO.P,J116,1*%
%TO.N,Net-(J116-Pad1)*%
%TA.AperFunction,ComponentPad*%
G36*
G01*
X114125000Y-55025001D02*
X114125000Y-53674999D01*
G75*
G02*
X114374999Y-53425000I249999J0D01*
G01*
X115725001Y-53425000D01*
G75*
G02*
X115975000Y-53674999I0J-249999D01*
G01*
X115975000Y-55025001D01*
G75*
G02*
X115725001Y-55275000I-249999J0D01*
G01*
X114374999Y-55275000D01*
G75*
G02*
X114125000Y-55025001I0J249999D01*
G01*
G37*
%TD.AperFunction*%
%TD*%
%TO.P,J115,1*%
%TO.N,Net-(J115-Pad1)*%
%TA.AperFunction,ComponentPad*%
G36*
G01*
X117375000Y-55025001D02*
X117375000Y-53674999D01*
G75*
G02*
X117624999Y-53425000I249999J0D01*
G01*
X118975001Y-53425000D01*
G75*
G02*
X119225000Y-53674999I0J-249999D01*
G01*
X119225000Y-55025001D01*
G75*
G02*
X118975001Y-55275000I-249999J0D01*
G01*
X117624999Y-55275000D01*
G75*
G02*
X117375000Y-55025001I0J249999D01*
G01*
G37*
%TD.AperFunction*%
%TD*%
%TO.P,J114,1*%
%TO.N,Net-(J114-Pad1)*%
%TA.AperFunction,ComponentPad*%
G36*
G01*
X120625000Y-55025001D02*
X120625000Y-53674999D01*
G75*
G02*
X120874999Y-53425000I249999J0D01*
G01*
X122225001Y-53425000D01*
G75*
G02*
X122475000Y-53674999I0J-249999D01*
G01*
X122475000Y-55025001D01*
G75*
G02*
X122225001Y-55275000I-249999J0D01*
G01*
X120874999Y-55275000D01*
G75*
G02*
X120625000Y-55025001I0J249999D01*
G01*
G37*
%TD.AperFunction*%
%TD*%
%TO.P,J113,1*%
%TO.N,Net-(J113-Pad1)*%
%TA.AperFunction,ComponentPad*%
G36*
G01*
X123875000Y-55025001D02*
X123875000Y-53674999D01*
G75*
G02*
X124124999Y-53425000I249999J0D01*
G01*
X125475001Y-53425000D01*
G75*
G02*
X125725000Y-53674999I0J-249999D01*
G01*
X125725000Y-55025001D01*
G75*
G02*
X125475001Y-55275000I-249999J0D01*
G01*
X124124999Y-55275000D01*
G75*
G02*
X123875000Y-55025001I0J249999D01*
G01*
G37*
%TD.AperFunction*%
%TD*%
%TO.P,J112,1*%
%TO.N,Net-(J112-Pad1)*%
%TA.AperFunction,ComponentPad*%
G36*
G01*
X122375000Y-50275001D02*
X122375000Y-48924999D01*
G75*
G02*
X122624999Y-48675000I249999J0D01*
G01*
X123975001Y-48675000D01*
G75*
G02*
X124225000Y-48924999I0J-249999D01*
G01*
X124225000Y-50275001D01*
G75*
G02*
X123975001Y-50525000I-249999J0D01*
G01*
X122624999Y-50525000D01*
G75*
G02*
X122375000Y-50275001I0J249999D01*
G01*
G37*
%TD.AperFunction*%
%TD*%
%TO.P,J111,1*%
%TO.N,Net-(J11-Pad1)*%
%TA.AperFunction,ComponentPad*%
G36*
G01*
X119125000Y-50275001D02*
X119125000Y-48924999D01*
G75*
G02*
X119374999Y-48675000I249999J0D01*
G01*
X120725001Y-48675000D01*
G75*
G02*
X120975000Y-48924999I0J-249999D01*
G01*
X120975000Y-50275001D01*
G75*
G02*
X120725001Y-50525000I-249999J0D01*
G01*
X119374999Y-50525000D01*
G75*
G02*
X119125000Y-50275001I0J249999D01*
G01*
G37*
%TD.AperFunction*%
%TD*%
%TO.P,J110,1*%
%TO.N,Net-(J10-Pad1)*%
%TA.AperFunction,ComponentPad*%
G36*
G01*
X115875000Y-50275001D02*
X115875000Y-48924999D01*
G75*
G02*
X116124999Y-48675000I249999J0D01*
G01*
X117475001Y-48675000D01*
G75*
G02*
X117725000Y-48924999I0J-249999D01*
G01*
X117725000Y-50275001D01*
G75*
G02*
X117475001Y-50525000I-249999J0D01*
G01*
X116124999Y-50525000D01*
G75*
G02*
X115875000Y-50275001I0J249999D01*
G01*
G37*
%TD.AperFunction*%
%TD*%
%TO.P,J109,1*%
%TO.N,Net-(J109-Pad1)*%
%TA.AperFunction,ComponentPad*%
G36*
G01*
X112625000Y-50275001D02*
X112625000Y-48924999D01*
G75*
G02*
X112874999Y-48675000I249999J0D01*
G01*
X114225001Y-48675000D01*
G75*
G02*
X114475000Y-48924999I0J-249999D01*
G01*
X114475000Y-50275001D01*
G75*
G02*
X114225001Y-50525000I-249999J0D01*
G01*
X112874999Y-50525000D01*
G75*
G02*
X112625000Y-50275001I0J249999D01*
G01*
G37*
%TD.AperFunction*%
%TD*%
%TO.P,J108,1*%
%TO.N,Net-(J108-Pad1)*%
%TA.AperFunction,ComponentPad*%
G36*
G01*
X109375000Y-50275001D02*
X109375000Y-48924999D01*
G75*
G02*
X109624999Y-48675000I249999J0D01*
G01*
X110975001Y-48675000D01*
G75*
G02*
X111225000Y-48924999I0J-249999D01*
G01*
X111225000Y-50275001D01*
G75*
G02*
X110975001Y-50525000I-249999J0D01*
G01*
X109624999Y-50525000D01*
G75*
G02*
X109375000Y-50275001I0J249999D01*
G01*
G37*
%TD.AperFunction*%
%TD*%
%TO.P,J107,1*%
%TO.N,Net-(J107-Pad1)*%
%TA.AperFunction,ComponentPad*%
G36*
G01*
X106125000Y-50275001D02*
X106125000Y-48924999D01*
G75*
G02*
X106374999Y-48675000I249999J0D01*
G01*
X107725001Y-48675000D01*
G75*
G02*
X107975000Y-48924999I0J-249999D01*
G01*
X107975000Y-50275001D01*
G75*
G02*
X107725001Y-50525000I-249999J0D01*
G01*
X106374999Y-50525000D01*
G75*
G02*
X106125000Y-50275001I0J249999D01*
G01*
G37*
%TD.AperFunction*%
%TD*%
%TO.P,J106,1*%
%TO.N,Net-(J106-Pad1)*%
%TA.AperFunction,ComponentPad*%
G36*
G01*
X102875000Y-50275001D02*
X102875000Y-48924999D01*
G75*
G02*
X103124999Y-48675000I249999J0D01*
G01*
X104475001Y-48675000D01*
G75*
G02*
X104725000Y-48924999I0J-249999D01*
G01*
X104725000Y-50275001D01*
G75*
G02*
X104475001Y-50525000I-249999J0D01*
G01*
X103124999Y-50525000D01*
G75*
G02*
X102875000Y-50275001I0J249999D01*
G01*
G37*
%TD.AperFunction*%
%TD*%
%TO.P,J105,1*%
%TO.N,Net-(J105-Pad1)*%
%TA.AperFunction,ComponentPad*%
G36*
G01*
X99625000Y-50275001D02*
X99625000Y-48924999D01*
G75*
G02*
X99874999Y-48675000I249999J0D01*
G01*
X101225001Y-48675000D01*
G75*
G02*
X101475000Y-48924999I0J-249999D01*
G01*
X101475000Y-50275001D01*
G75*
G02*
X101225001Y-50525000I-249999J0D01*
G01*
X99874999Y-50525000D01*
G75*
G02*
X99625000Y-50275001I0J249999D01*
G01*
G37*
%TD.AperFunction*%
%TD*%
%TO.P,J104,1*%
%TO.N,Net-(J104-Pad1)*%
%TA.AperFunction,ComponentPad*%
G36*
G01*
X96375000Y-50275001D02*
X96375000Y-48924999D01*
G75*
G02*
X96624999Y-48675000I249999J0D01*
G01*
X97975001Y-48675000D01*
G75*
G02*
X98225000Y-48924999I0J-249999D01*
G01*
X98225000Y-50275001D01*
G75*
G02*
X97975001Y-50525000I-249999J0D01*
G01*
X96624999Y-50525000D01*
G75*
G02*
X96375000Y-50275001I0J249999D01*
G01*
G37*
%TD.AperFunction*%
%TD*%
%TO.P,J103,1*%
%TO.N,Net-(J103-Pad1)*%
%TA.AperFunction,ComponentPad*%
G36*
G01*
X93125000Y-50275001D02*
X93125000Y-48924999D01*
G75*
G02*
X93374999Y-48675000I249999J0D01*
G01*
X94725001Y-48675000D01*
G75*
G02*
X94975000Y-48924999I0J-249999D01*
G01*
X94975000Y-50275001D01*
G75*
G02*
X94725001Y-50525000I-249999J0D01*
G01*
X93374999Y-50525000D01*
G75*
G02*
X93125000Y-50275001I0J249999D01*
G01*
G37*
%TD.AperFunction*%
%TD*%
%TO.P,J102,1*%
%TO.N,Net-(J102-Pad1)*%
%TA.AperFunction,ComponentPad*%
G36*
G01*
X89875000Y-50275001D02*
X89875000Y-48924999D01*
G75*
G02*
X90124999Y-48675000I249999J0D01*
G01*
X91475001Y-48675000D01*
G75*
G02*
X91725000Y-48924999I0J-249999D01*
G01*
X91725000Y-50275001D01*
G75*
G02*
X91475001Y-50525000I-249999J0D01*
G01*
X90124999Y-50525000D01*
G75*
G02*
X89875000Y-50275001I0J249999D01*
G01*
G37*
%TD.AperFunction*%
%TD*%
%TO.P,J101,1*%
%TO.N,Net-(J1-Pad1)*%
%TA.AperFunction,ComponentPad*%
G36*
G01*
X86625000Y-50275001D02*
X86625000Y-48924999D01*
G75*
G02*
X86874999Y-48675000I249999J0D01*
G01*
X88225001Y-48675000D01*
G75*
G02*
X88475000Y-48924999I0J-249999D01*
G01*
X88475000Y-50275001D01*
G75*
G02*
X88225001Y-50525000I-249999J0D01*
G01*
X86874999Y-50525000D01*
G75*
G02*
X86625000Y-50275001I0J249999D01*
G01*
G37*
%TD.AperFunction*%
%TD*%
D10*
%TO.P,J24,1*%
%TO.N,Net-(J124-Pad1)*%
X88687500Y-86025000D03*
%TD*%
%TO.P,J23,1*%
%TO.N,Net-(J123-Pad1)*%
X91862500Y-86025000D03*
%TD*%
%TO.P,J22,1*%
%TO.N,Net-(J122-Pad1)*%
X95037500Y-86025000D03*
%TD*%
%TO.P,J21,1*%
%TO.N,Net-(J121-Pad1)*%
X98212500Y-86025000D03*
%TD*%
%TO.P,J20,1*%
%TO.N,Net-(J120-Pad1)*%
X101387500Y-86025000D03*
%TD*%
%TO.P,J19,1*%
%TO.N,Net-(J119-Pad1)*%
X104562500Y-86025000D03*
%TD*%
%TO.P,J18,1*%
%TO.N,Net-(J118-Pad1)*%
X107737500Y-86025000D03*
%TD*%
%TO.P,J17,1*%
%TO.N,Net-(J117-Pad1)*%
X110912500Y-86025000D03*
%TD*%
%TO.P,J16,1*%
%TO.N,Net-(J116-Pad1)*%
X114087500Y-86025000D03*
%TD*%
%TO.P,J15,1*%
%TO.N,Net-(J115-Pad1)*%
X117262500Y-86025000D03*
%TD*%
%TO.P,J14,1*%
%TO.N,Net-(J114-Pad1)*%
X120437500Y-86025000D03*
%TD*%
%TO.P,J13,1*%
%TO.N,Net-(J113-Pad1)*%
X123612500Y-86025000D03*
%TD*%
%TO.P,J12,1*%
%TO.N,Net-(J112-Pad1)*%
X123612500Y-79675000D03*
%TD*%
%TO.P,J11,1*%
%TO.N,Net-(J11-Pad1)*%
X120437500Y-79675000D03*
%TD*%
%TO.P,J10,1*%
%TO.N,Net-(J10-Pad1)*%
X117262500Y-79675000D03*
%TD*%
%TO.P,J9,1*%
%TO.N,Net-(J109-Pad1)*%
X114087500Y-79675000D03*
%TD*%
%TO.P,J8,1*%
%TO.N,Net-(J108-Pad1)*%
X110912500Y-79675000D03*
%TD*%
%TO.P,J7,1*%
%TO.N,Net-(J107-Pad1)*%
X107737500Y-79675000D03*
%TD*%
%TO.P,J6,1*%
%TO.N,Net-(J106-Pad1)*%
X104562500Y-79675000D03*
%TD*%
%TO.P,J5,1*%
%TO.N,Net-(J105-Pad1)*%
X101387500Y-79675000D03*
%TD*%
%TO.P,J4,1*%
%TO.N,Net-(J104-Pad1)*%
X98212500Y-79675000D03*
%TD*%
%TO.P,J3,1*%
%TO.N,Net-(J103-Pad1)*%
X95037500Y-79675000D03*
%TD*%
%TO.P,J2,1*%
%TO.N,Net-(J102-Pad1)*%
X91862500Y-79675000D03*
%TD*%
%TO.P,J1,1*%
%TO.N,Net-(J1-Pad1)*%
X88687500Y-79675000D03*
%TD*%
D11*
%TO.N,Net-(J1-Pad1)*%
X88687500Y-79675000D02*
X88687500Y-80937500D01*
X88687500Y-80937500D02*
X89200000Y-81450000D01*
X89200000Y-81450000D02*
X89200000Y-82050000D01*
X87550000Y-49600000D02*
X87550000Y-47700000D01*
X87550000Y-47700000D02*
X89150000Y-46100000D01*
X89150000Y-46100000D02*
X89150000Y-45500000D01*
%TO.N,Net-(J102-Pad1)*%
X91862500Y-79675000D02*
X91862500Y-80937500D01*
X91862500Y-80937500D02*
X91350000Y-81450000D01*
X91350000Y-81450000D02*
X91350000Y-82050000D01*
X90800000Y-49600000D02*
X90800000Y-46650000D01*
X90800000Y-46650000D02*
X91350000Y-46100000D01*
X91350000Y-46100000D02*
X91350000Y-45500000D01*
%TO.N,Net-(J103-Pad1)*%
X95550000Y-81450000D02*
X95550000Y-82050000D01*
X95037500Y-79675000D02*
X95037500Y-80937500D01*
X95037500Y-80937500D02*
X95550000Y-81450000D01*
X94050000Y-49600000D02*
X94050000Y-47500000D01*
X94050000Y-47500000D02*
X95450000Y-46100000D01*
X95450000Y-46100000D02*
X95450000Y-45500000D01*
%TO.N,Net-(J104-Pad1)*%
X98212500Y-80937500D02*
X97700000Y-81450000D01*
X98212500Y-79675000D02*
X98212500Y-80937500D01*
X97700000Y-81450000D02*
X97700000Y-82050000D01*
X97300000Y-49600000D02*
X97300000Y-46450000D01*
X97300000Y-46450000D02*
X97650000Y-46100000D01*
X97650000Y-46100000D02*
X97650000Y-45500000D01*
%TO.N,Net-(J105-Pad1)*%
X101900000Y-81450000D02*
X101900000Y-82050000D01*
X101387500Y-79675000D02*
X101387500Y-80937500D01*
X101387500Y-80937500D02*
X101900000Y-81450000D01*
X100550000Y-49600000D02*
X100550000Y-47400000D01*
X100550000Y-47400000D02*
X101850000Y-46100000D01*
X101850000Y-46100000D02*
X101850000Y-45500000D01*
%TO.N,Net-(J106-Pad1)*%
X104562500Y-80937500D02*
X104050000Y-81450000D01*
X104562500Y-79675000D02*
X104562500Y-80937500D01*
X104050000Y-81450000D02*
X104050000Y-82050000D01*
X103800000Y-49600000D02*
X103800000Y-46350000D01*
X103800000Y-46350000D02*
X104050000Y-46100000D01*
X104050000Y-46100000D02*
X104050000Y-45500000D01*
%TO.N,Net-(J107-Pad1)*%
X108250000Y-81450000D02*
X108250000Y-82050000D01*
X107737500Y-79675000D02*
X107737500Y-80937500D01*
X107737500Y-80937500D02*
X108250000Y-81450000D01*
X107050000Y-49600000D02*
X107050000Y-47300000D01*
X107050000Y-47300000D02*
X108250000Y-46100000D01*
X108250000Y-46100000D02*
X108250000Y-45500000D01*
%TO.N,Net-(J108-Pad1)*%
X110912500Y-80937500D02*
X110400000Y-81450000D01*
X110912500Y-79675000D02*
X110912500Y-80937500D01*
X110400000Y-81450000D02*
X110400000Y-82050000D01*
X110300000Y-49600000D02*
X110300000Y-46150000D01*
X110300000Y-46150000D02*
X110350000Y-46100000D01*
X110350000Y-46100000D02*
X110350000Y-45500000D01*
%TO.N,Net-(J109-Pad1)*%
X114600000Y-81450000D02*
X114600000Y-82050000D01*
X114087500Y-79675000D02*
X114087500Y-80937500D01*
X114087500Y-80937500D02*
X114600000Y-81450000D01*
X113550000Y-49600000D02*
X113550000Y-47100000D01*
X113550000Y-47100000D02*
X114550000Y-46100000D01*
X114550000Y-46100000D02*
X114550000Y-45500000D01*
%TO.N,Net-(J10-Pad1)*%
X117262500Y-80937500D02*
X116750000Y-81450000D01*
X117262500Y-79675000D02*
X117262500Y-80937500D01*
X116750000Y-81450000D02*
X116750000Y-82050000D01*
X116800000Y-49600000D02*
X116800000Y-46150000D01*
X116800000Y-46150000D02*
X116750000Y-46100000D01*
X116750000Y-46100000D02*
X116750000Y-45500000D01*
%TO.N,Net-(J11-Pad1)*%
X120950000Y-81450000D02*
X120950000Y-82050000D01*
X120437500Y-79675000D02*
X120437500Y-80937500D01*
X120437500Y-80937500D02*
X120950000Y-81450000D01*
X120050000Y-49600000D02*
X120050000Y-46900000D01*
X120050000Y-46900000D02*
X120850000Y-46100000D01*
X120850000Y-46100000D02*
X120850000Y-45500000D01*
%TO.N,Net-(J112-Pad1)*%
X123612500Y-80937500D02*
X123100000Y-81450000D01*
X123612500Y-79675000D02*
X123612500Y-80937500D01*
X123100000Y-81450000D02*
X123100000Y-82050000D01*
X123300000Y-49600000D02*
X123300000Y-46350000D01*
X123300000Y-46350000D02*
X123050000Y-46100000D01*
X123050000Y-46100000D02*
X123050000Y-45500000D01*
%TO.N,Net-(J113-Pad1)*%
X123100000Y-84250000D02*
X123100000Y-83650000D01*
X123612500Y-86025000D02*
X123612500Y-84762500D01*
X123612500Y-84762500D02*
X123100000Y-84250000D01*
%TO.N,Net-(J114-Pad1)*%
X120437500Y-86025000D02*
X120437500Y-84712500D01*
X120950000Y-84200000D02*
X120950000Y-83650000D01*
X120437500Y-84712500D02*
X120950000Y-84200000D01*
%TO.N,Net-(J115-Pad1)*%
X116750000Y-84250000D02*
X116750000Y-83650000D01*
X117262500Y-86025000D02*
X117262500Y-84762500D01*
X117262500Y-84762500D02*
X116750000Y-84250000D01*
%TO.N,Net-(J116-Pad1)*%
X114087500Y-86025000D02*
X114087500Y-84712500D01*
X114600000Y-84200000D02*
X114600000Y-83650000D01*
X114087500Y-84712500D02*
X114600000Y-84200000D01*
%TO.N,Net-(J117-Pad1)*%
X110400000Y-84250000D02*
X110400000Y-83650000D01*
X110912500Y-86025000D02*
X110912500Y-84762500D01*
X110912500Y-84762500D02*
X110400000Y-84250000D01*
%TO.N,Net-(J118-Pad1)*%
X107737500Y-86025000D02*
X107737500Y-84712500D01*
X108250000Y-84200000D02*
X108250000Y-83650000D01*
X107737500Y-84712500D02*
X108250000Y-84200000D01*
%TO.N,Net-(J119-Pad1)*%
X104050000Y-84250000D02*
X104050000Y-83650000D01*
X104562500Y-86025000D02*
X104562500Y-84762500D01*
X104562500Y-84762500D02*
X104050000Y-84250000D01*
%TO.N,Net-(J120-Pad1)*%
X101387500Y-86025000D02*
X101387500Y-84712500D01*
X101900000Y-84200000D02*
X101900000Y-83650000D01*
X101387500Y-84712500D02*
X101900000Y-84200000D01*
%TO.N,Net-(J121-Pad1)*%
X97700000Y-84250000D02*
X97700000Y-83650000D01*
X98212500Y-86025000D02*
X98212500Y-84762500D01*
X98212500Y-84762500D02*
X97700000Y-84250000D01*
%TO.N,Net-(J122-Pad1)*%
X95037500Y-86025000D02*
X95037500Y-84712500D01*
X95550000Y-84200000D02*
X95550000Y-83650000D01*
X95037500Y-84712500D02*
X95550000Y-84200000D01*
%TO.N,Net-(J123-Pad1)*%
X91862500Y-86025000D02*
X91862500Y-84762500D01*
X91862500Y-84762500D02*
X91350000Y-84250000D01*
X91350000Y-84250000D02*
X91350000Y-83650000D01*
%TO.N,Net-(J124-Pad1)*%
X88687500Y-86025000D02*
X88687500Y-84712500D01*
X88687500Y-84712500D02*
X89200000Y-84200000D01*
X89200000Y-84200000D02*
X89200000Y-83650000D01*
%TD*%
D12*
%TO.N,Net-(J1-Pad1)*%
X89635000Y-46085000D02*
X88665000Y-46085000D01*
X88665000Y-44640000D01*
X89635000Y-44640000D01*
X89635000Y-46085000D01*
%TA.AperFunction,Conductor*%
D13*
G36*
X89635000Y-46085000D02*
G01*
X88665000Y-46085000D01*
X88665000Y-44640000D01*
X89635000Y-44640000D01*
X89635000Y-46085000D01*
G37*
%TD.AperFunction*%
%TD*%
D12*
%TO.N,Net-(J102-Pad1)*%
X91785000Y-46085000D02*
X90815000Y-46085000D01*
X90815000Y-44640000D01*
X91785000Y-44640000D01*
X91785000Y-46085000D01*
%TA.AperFunction,Conductor*%
D13*
G36*
X91785000Y-46085000D02*
G01*
X90815000Y-46085000D01*
X90815000Y-44640000D01*
X91785000Y-44640000D01*
X91785000Y-46085000D01*
G37*
%TD.AperFunction*%
%TD*%
D12*
%TO.N,Net-(J103-Pad1)*%
X95985000Y-46085000D02*
X95015000Y-46085000D01*
X95015000Y-44640000D01*
X95985000Y-44640000D01*
X95985000Y-46085000D01*
%TA.AperFunction,Conductor*%
D13*
G36*
X95985000Y-46085000D02*
G01*
X95015000Y-46085000D01*
X95015000Y-44640000D01*
X95985000Y-44640000D01*
X95985000Y-46085000D01*
G37*
%TD.AperFunction*%
%TD*%
D12*
%TO.N,Net-(J105-Pad1)*%
X102335000Y-46085000D02*
X101365000Y-46085000D01*
X101365000Y-44640000D01*
X102335000Y-44640000D01*
X102335000Y-46085000D01*
%TA.AperFunction,Conductor*%
D13*
G36*
X102335000Y-46085000D02*
G01*
X101365000Y-46085000D01*
X101365000Y-44640000D01*
X102335000Y-44640000D01*
X102335000Y-46085000D01*
G37*
%TD.AperFunction*%
%TD*%
D12*
%TO.N,Net-(J107-Pad1)*%
X108685000Y-46085000D02*
X107715000Y-46085000D01*
X107715000Y-44640000D01*
X108685000Y-44640000D01*
X108685000Y-46085000D01*
%TA.AperFunction,Conductor*%
D13*
G36*
X108685000Y-46085000D02*
G01*
X107715000Y-46085000D01*
X107715000Y-44640000D01*
X108685000Y-44640000D01*
X108685000Y-46085000D01*
G37*
%TD.AperFunction*%
%TD*%
D12*
%TO.N,Net-(J109-Pad1)*%
X115035000Y-46085000D02*
X114065000Y-46085000D01*
X114065000Y-44640000D01*
X115035000Y-44640000D01*
X115035000Y-46085000D01*
%TA.AperFunction,Conductor*%
D13*
G36*
X115035000Y-46085000D02*
G01*
X114065000Y-46085000D01*
X114065000Y-44640000D01*
X115035000Y-44640000D01*
X115035000Y-46085000D01*
G37*
%TD.AperFunction*%
%TD*%
D12*
%TO.N,Net-(J11-Pad1)*%
X121385000Y-46085000D02*
X120415000Y-46085000D01*
X120415000Y-44640000D01*
X121385000Y-44640000D01*
X121385000Y-46085000D01*
%TA.AperFunction,Conductor*%
D13*
G36*
X121385000Y-46085000D02*
G01*
X120415000Y-46085000D01*
X120415000Y-44640000D01*
X121385000Y-44640000D01*
X121385000Y-46085000D01*
G37*
%TD.AperFunction*%
%TD*%
D12*
%TO.N,Net-(J104-Pad1)*%
X98135000Y-46085000D02*
X97165000Y-46085000D01*
X97165000Y-44640000D01*
X98135000Y-44640000D01*
X98135000Y-46085000D01*
%TA.AperFunction,Conductor*%
D13*
G36*
X98135000Y-46085000D02*
G01*
X97165000Y-46085000D01*
X97165000Y-44640000D01*
X98135000Y-44640000D01*
X98135000Y-46085000D01*
G37*
%TD.AperFunction*%
%TD*%
D12*
%TO.N,Net-(J106-Pad1)*%
X104485000Y-46085000D02*
X103515000Y-46085000D01*
X103515000Y-44640000D01*
X104485000Y-44640000D01*
X104485000Y-46085000D01*
%TA.AperFunction,Conductor*%
D13*
G36*
X104485000Y-46085000D02*
G01*
X103515000Y-46085000D01*
X103515000Y-44640000D01*
X104485000Y-44640000D01*
X104485000Y-46085000D01*
G37*
%TD.AperFunction*%
%TD*%
D12*
%TO.N,Net-(J108-Pad1)*%
X110835000Y-46085000D02*
X109865000Y-46085000D01*
X109865000Y-44640000D01*
X110835000Y-44640000D01*
X110835000Y-46085000D01*
%TA.AperFunction,Conductor*%
D13*
G36*
X110835000Y-46085000D02*
G01*
X109865000Y-46085000D01*
X109865000Y-44640000D01*
X110835000Y-44640000D01*
X110835000Y-46085000D01*
G37*
%TD.AperFunction*%
%TD*%
D12*
%TO.N,Net-(J10-Pad1)*%
X117185000Y-46085000D02*
X116215000Y-46085000D01*
X116215000Y-44640000D01*
X117185000Y-44640000D01*
X117185000Y-46085000D01*
%TA.AperFunction,Conductor*%
D13*
G36*
X117185000Y-46085000D02*
G01*
X116215000Y-46085000D01*
X116215000Y-44640000D01*
X117185000Y-44640000D01*
X117185000Y-46085000D01*
G37*
%TD.AperFunction*%
%TD*%
D12*
%TO.N,Net-(J112-Pad1)*%
X123535000Y-46085000D02*
X122565000Y-46085000D01*
X122565000Y-44640000D01*
X123535000Y-44640000D01*
X123535000Y-46085000D01*
%TA.AperFunction,Conductor*%
D13*
G36*
X123535000Y-46085000D02*
G01*
X122565000Y-46085000D01*
X122565000Y-44640000D01*
X123535000Y-44640000D01*
X123535000Y-46085000D01*
G37*
%TD.AperFunction*%
%TD*%
M02*
