M48
; DRILL file {KiCad (5.1.10)-1} date 08/21/21 19:47:25
; FORMAT={-:-/ absolute / inch / decimal}
; #@! TF.CreationDate,2021-08-21T19:47:25+01:00
; #@! TF.GenerationSoftware,Kicad,Pcbnew,(5.1.10)-1
; #@! TF.FileFunction,Plated,1,2,PTH
FMAT,2
INCH
T1C0.0335
T2C0.0394
%
G90
G05
T1
X3.4469Y-1.9528
X3.5059Y-2.1398
X3.5748Y-1.9528
X3.6339Y-2.1398
X3.7028Y-1.9528
X3.7618Y-2.1398
X3.8307Y-1.9528
X3.8898Y-2.1398
X3.9587Y-1.9528
X4.0177Y-2.1398
X4.0866Y-1.9528
X4.1457Y-2.1398
X4.2146Y-1.9528
X4.2736Y-2.1398
X4.3425Y-1.9528
X4.4016Y-2.1398
X4.4705Y-1.9528
X4.5295Y-2.1398
X4.5984Y-1.9528
X4.6575Y-2.1398
X4.7264Y-1.9528
X4.7854Y-2.1398
X4.8543Y-1.9528
X4.9134Y-2.1398
T2
X3.4916Y-3.1368
X3.4916Y-3.3868
X3.6166Y-3.1368
X3.6166Y-3.3868
X3.7416Y-3.1368
X3.7416Y-3.3868
X3.8666Y-3.1368
X3.8666Y-3.3868
X3.9916Y-3.1368
X3.9916Y-3.3868
X4.1166Y-3.1368
X4.1166Y-3.3868
X4.2416Y-3.1368
X4.2416Y-3.3868
X4.3666Y-3.1368
X4.3666Y-3.3868
X4.4916Y-3.1368
X4.4916Y-3.3868
X4.6166Y-3.1368
X4.6166Y-3.3868
X4.7416Y-3.1368
X4.7416Y-3.3868
X4.8666Y-3.1368
X4.8666Y-3.3868
T0
M30
