%TF.GenerationSoftware,KiCad,Pcbnew,(5.1.10)-1*%
%TF.CreationDate,2021-08-21T19:47:19+01:00*%
%TF.ProjectId,SLT_interconnect,534c545f-696e-4746-9572-636f6e6e6563,00*%
%TF.SameCoordinates,Original*%
%TF.FileFunction,Profile,NP*%
%FSLAX46Y46*%
G04 Gerber Fmt 4.6, Leading zero omitted, Abs format (unit mm)*
G04 Created by KiCad (PCBNEW (5.1.10)-1) date 2021-08-21 19:47:19*
%MOMM*%
%LPD*%
G01*
G04 APERTURE LIST*
%TA.AperFunction,Profile*%
%ADD10C,0.050000*%
%TD*%
G04 APERTURE END LIST*
D10*
X118650000Y-77400000D02*
X127900000Y-77400000D01*
X97450000Y-77400000D02*
X114850000Y-77400000D01*
X118650000Y-75400000D02*
X127100000Y-75400000D01*
X97450000Y-75400000D02*
X114850000Y-75400000D01*
X117050000Y-71400000D02*
X95050000Y-71400000D01*
X95050000Y-58900000D02*
X117050000Y-58900000D01*
X117050000Y-58900000D02*
G75*
G02*
X117050000Y-71400000I0J-6250000D01*
G01*
X95050000Y-71400000D02*
G75*
G02*
X95050000Y-58900000I0J6250000D01*
G01*
X127100000Y-75400000D02*
X127100000Y-44600000D01*
X85100000Y-75400000D02*
X93650000Y-75400000D01*
X85100000Y-44600000D02*
X85100000Y-75400000D01*
X86050000Y-44600000D02*
X85100000Y-44600000D01*
X126150000Y-44600000D02*
X127100000Y-44600000D01*
X119800000Y-44600000D02*
X124150000Y-44600000D01*
X113450000Y-44600000D02*
X117800000Y-44600000D01*
X107100000Y-44600000D02*
X111450000Y-44600000D01*
X100750000Y-44600000D02*
X105100000Y-44600000D01*
X94400000Y-44600000D02*
X98750000Y-44600000D01*
X88050000Y-44600000D02*
X92400000Y-44600000D01*
X88050000Y-43000000D02*
X88050000Y-44600000D01*
X94400000Y-43000000D02*
X94400000Y-44600000D01*
X100750000Y-43000000D02*
X100750000Y-44600000D01*
X86050000Y-44600000D02*
X86050000Y-43000000D01*
X92400000Y-44600000D02*
X92400000Y-43000000D01*
X98750000Y-44600000D02*
X98750000Y-43000000D01*
X86050000Y-43000000D02*
X88050000Y-43000000D01*
X92400000Y-43000000D02*
X94400000Y-43000000D01*
X98750000Y-43000000D02*
X100750000Y-43000000D01*
X126150000Y-43000000D02*
X126150000Y-44600000D01*
X119800000Y-43000000D02*
X119800000Y-44600000D01*
X113450000Y-43000000D02*
X113450000Y-44600000D01*
X124150000Y-44600000D02*
X124150000Y-43000000D01*
X117800000Y-44600000D02*
X117800000Y-43000000D01*
X111450000Y-44600000D02*
X111450000Y-43000000D01*
X124150000Y-43000000D02*
X126150000Y-43000000D01*
X117800000Y-43000000D02*
X119800000Y-43000000D01*
X111450000Y-43000000D02*
X113450000Y-43000000D01*
X107100000Y-43000000D02*
X107100000Y-44600000D01*
X105100000Y-43000000D02*
X107100000Y-43000000D01*
X105100000Y-44600000D02*
X105100000Y-43000000D01*
X84400000Y-85100000D02*
X84400000Y-77400000D01*
X86700000Y-85100000D02*
X84400000Y-85100000D01*
X86700000Y-88300000D02*
X86700000Y-85100000D01*
X125600000Y-88300000D02*
X86700000Y-88300000D01*
X125600000Y-85100000D02*
X125600000Y-88300000D01*
X127900000Y-85100000D02*
X125600000Y-85100000D01*
X127900000Y-77400000D02*
X127900000Y-85100000D01*
X84400000Y-77400000D02*
X93650000Y-77400000D01*
%TO.C,REF\u002A\u002A*%
X114850000Y-77400000D02*
G75*
G03*
X114850000Y-75400000I-600000J1000000D01*
G01*
X118650000Y-77400000D02*
G75*
G02*
X118650000Y-75400000I600000J1000000D01*
G01*
X93650000Y-77400000D02*
G75*
G03*
X93650000Y-75400000I-600000J1000000D01*
G01*
X97450000Y-77400000D02*
G75*
G02*
X97450000Y-75400000I600000J1000000D01*
G01*
%TD*%
M02*
